<?xml version="1.0" encoding="iso-8859-1"?>
<!-- Generator: Adobe Illustrator 19.0.0, SVG Export Plug-In . SVG Version: 6.00 Build 0)  -->
<svg version="1.1" id="Capa_1" xmlns="http://www.w3.org/2000/svg" xmlns:xlink="http://www.w3.org/1999/xlink" x="0px" y="0px"
	 viewBox="0 0 272.8 272.8" style="enable-background:new 0 0 272.8 272.8;" xml:space="preserve">
<path style="fill:#FFFFFF;" d="M88,272.8H46.4c-12,0-22.8-4.8-30.8-12.8S2.8,241.2,2.8,229.2v-44.4h16.8v44.4c0,7.6,3.2,14.4,8,19.2
	c4.8,4.8,11.6,8,19.2,8h41.6v16.4H88z M270.4,184.8v44.4c0,12-4.8,22.8-12.8,30.8s-18.8,12.8-30.8,12.8h-42V256h41.6
	c7.6,0,14.4-3.2,19.2-8c4.8-4.8,8-11.6,8-19.2v-44H270.4z M184.8,0h41.6c12,0,22.8,4.8,30.8,12.8S270,31.6,270,43.6V88h-16.8V43.6
	c0-7.6-3.2-14.4-8-19.2s-11.6-8-19.2-8h-41.2V0z M46.4,0H88v16.8H46.4c-7.6,0-14.4,3.2-19.2,8s-8,11.6-8,19.2v44.4H2.4V43.6
	c0-12,4.8-22.8,12.8-30.8S34.4,0,46.4,0z"/>
</svg>
